<svg version="1.1" viewBox="0.0 0.0 960.0 960.0" fill="none" stroke="none" stroke-linecap="square" stroke-miterlimit="10" xmlns:xlink="http://www.w3.org/1999/xlink" xmlns="http://www.w3.org/2000/svg"><clipPath id="p.0"><path d="m0 0l960.0 0l0 960.0l-960.0 0l0 -960.0z" clip-rule="nonzero"/></clipPath><g clip-path="url(#p.0)"><path fill="#000000" fill-opacity="0.0" d="m0 0l960.0 0l0 960.0l-960.0 0z" fill-rule="evenodd"/><path fill="#ffffff" d="m1.671916 0.8372703l960.0 0l0 944.9449l-960.0 0z" fill-rule="evenodd"/><path stroke="#000000" stroke-width="1.0" stroke-linejoin="round" stroke-linecap="butt" d="m1.671916 0.8372703l960.0 0l0 944.9449l-960.0 0z" fill-rule="evenodd"/><path fill="#000000" d="m181.02647 697.17114l0 4.48645c0 9.943054 -2.8495178 18.087463 -8.548569 24.433228c-5.699051 6.305298 -13.035065 9.457947 -22.008041 9.457947c-5.699051 0 -10.347214 -1.8592529 -13.944489 -5.577759c-3.59729 -3.718567 -5.39592 -8.447571 -5.39592 -14.187012c0 -6.7095337 3.354782 -11.478943 10.064285 -14.308289c6.7095184 -2.86969 18.006577 -4.3045654 33.891174 -4.3045654zm-20.128555 -108.03949c-12.651077 0 -25.564896 1.3742676 -38.741432 4.1227417c-13.136108 2.7484741 -24.049187 6.345703 -32.739235 10.791809c-4.9715195 2.7484741 -8.588989 5.860718 -10.852455 9.336731c-2.2230225 3.4760132 -3.334549 7.942322 -3.334549 13.398865c0 7.194519 1.8592529 13.035034 5.577797 17.521545c3.7589493 4.446045 8.730461 6.6690674 14.9145355 6.6690674c4.001465 0 8.851723 -0.9902344 14.550774 -2.9707642c19.603127 -6.9520264 34.49746 -10.42804 44.68299 -10.42804c9.458008 0 16.167511 1.9401245 20.12857 5.8203125c3.9610596 3.8397827 5.941559 10.104675 5.941559 18.794739l0 4.4258423l-10.064285 0c-25.30217 0 -45.410522 1.7380371 -60.325066 5.2140503c-14.914543 3.4760132 -25.787209 9.134644 -32.61798 16.975891c-6.830765 7.8008423 -10.24617 18.28949 -10.24617 31.466064c0 11.438477 2.9101562 21.684631 8.730469 30.738464c5.860718 9.053833 13.883858 16.127136 24.069397 21.21991c10.185539 5.0927734 21.603867 7.63916 34.254936 7.63916c11.438522 0 21.260284 -2.4857788 29.465317 -7.4572754c8.205032 -4.9715576 14.045563 -11.923584 17.52156 -20.85614c0.48501587 8.447571 3.5164337 15.157043 9.094223 20.128601c5.5778046 4.9714966 12.711716 7.4572754 21.401764 7.4572754c9.943024 0 17.703445 -2.6676636 23.281235 -8.00293c5.618225 -5.335327 8.427322 -12.731934 8.427322 -22.189941l0 -77.84662c0 -27.565674 -6.770157 -48.11859 -20.310455 -61.658875c-13.540314 -13.540344 -34.477264 -20.310486 -62.81082 -20.310486z" fill-rule="evenodd"/><path fill="#000000" d="m302.13052 589.9198c-7.9625244 0 -14.8741455 2.9910278 -20.734863 8.973022c-5.8203125 5.9415283 -8.730469 12.873352 -8.730469 20.795471c0 7.9624634 3.1122437 15.035767 9.336761 21.219849l42.439728 41.772827l-46.1987 46.138123c-6.1840515 6.2244873 -9.276093 13.317932 -9.276093 21.280457c0 7.6795654 2.9707642 14.510376 8.912323 20.49237c5.9819946 5.9415283 12.9340515 8.9123535 20.85611 8.9123535c8.205017 0 15.541046 -3.3547974 22.008057 -10.064331l43.167267 -45.410522l43.591705 45.410522c6.4670105 6.7095337 13.803009 10.064331 22.008026 10.064331c7.9220886 0 14.853912 -2.9708252 20.795502 -8.9123535c5.981964 -5.9819946 8.972961 -12.812744 8.972961 -20.49237c0 -7.9625244 -3.092041 -15.055969 -9.276123 -21.280457l-46.1987 -46.138123l42.43976 -41.772827c6.2244873 -6.4265747 9.336761 -13.621155 9.336731 -21.583618c0 -7.6795654 -2.930359 -14.429504 -8.791077 -20.249817c-5.8203125 -5.860779 -12.691498 -8.791138 -20.613586 -8.791138c-8.205017 0 -15.541046 3.3547974 -22.008057 10.064331l-40.25714 40.56024l-39.832733 -40.56024c-6.2244873 -6.9520874 -13.540314 -10.428101 -21.947388 -10.428101z" fill-rule="evenodd"/><path fill="#000000" d="m573.62695 510.92126c-14.146545 0 -28.49524 2.243225 -43.04602 6.7297363c-14.510376 4.446045 -27.585846 10.65033 -39.22644 18.612854c-4.486511 2.9909668 -7.5381165 6.2244873 -9.154877 9.7005005c-1.6167603 3.4760132 -2.4251099 7.942322 -2.4251099 13.398865c0 7.6795654 2.1017761 14.328491 6.3053284 19.946655c4.2439575 5.57782 9.47821 8.366699 15.702698 8.366699c2.4655457 0 4.809845 -0.36376953 7.0328674 -1.0913086c2.2634583 -0.76794434 4.809845 -1.9603271 7.6391907 -3.5770874c2.86969 -1.6166992 4.8098145 -2.6676025 5.8202515 -3.152649l7.3966675 -3.7589111c7.9625244 -3.9610596 14.975159 -6.9924927 21.038025 -9.094238c6.1032104 -2.1018066 12.752075 -3.15271 19.946655 -3.15271c8.972961 0 15.86438 2.2432861 20.674194 6.7297363c4.850281 4.446106 7.2753906 10.892883 7.2753906 19.340393c0 14.389099 -8.184814 30.152466 -24.554382 47.29004l-78.9986 82.33313c-8.44751 8.690002 -12.671295 18.3703 -12.671295 29.040894c0 8.205017 2.6070251 14.975159 7.821045 20.310425c5.21402 5.335327 12.287323 8.00293 21.21988 8.00293l135.98907 0c10.913086 0 19.037292 -2.2230225 24.372559 -6.6690674c5.3756714 -4.486511 8.063538 -11.45874 8.063538 -20.916748c0 -9.17511 -2.6878662 -15.925049 -8.063538 -20.249817c-5.335266 -4.3652344 -13.459473 -6.5478516 -24.372559 -6.5478516l-74.875854 0l52.867798 -54.019714c14.672058 -15.399597 25.03949 -29.364319 31.102295 -41.894104c6.1032715 -12.529846 9.154846 -26.373291 9.154846 -41.530334c0 -14.672058 -3.7993774 -27.646484 -11.398071 -38.92334c-7.5583496 -11.317261 -18.28955 -20.007324 -32.193604 -26.07013c-13.904053 -6.1032104 -30.051392 -9.154846 -48.441956 -9.154846z" fill-rule="evenodd"/><path fill="#000000" d="m748.3297 514.2558c-10.145142 0 -17.966187 2.7484741 -23.463135 8.245422c-5.456543 5.456543 -8.184814 13.398865 -8.184814 23.826904l0 100.945984c0 6.7095337 2.364502 12.125671 7.093506 16.248352c4.729004 4.0823364 10.569519 6.123474 17.521545 6.123474c5.9415894 0 11.519409 -1.3742676 16.733398 -4.1227417c8.205017 -3.2334595 15.338928 -5.456543 21.401794 -6.6690674c6.1032104 -1.2529907 12.873352 -1.8795166 20.310425 -1.8795166c12.449036 0 22.149536 3.1122437 29.101562 9.336792c6.9520264 6.184021 10.42804 14.853882 10.42804 26.00946c0 11.923584 -3.3547974 20.694397 -10.06427 26.312683c-6.7095337 5.577759 -17.016296 8.366699 -30.92041 8.366699c-7.477478 0 -14.389099 -1.1115723 -20.734863 -3.3345947c-6.305298 -2.2634277 -13.297791 -5.2544556 -20.977356 -8.972961l-7.4572754 -3.6983032c-4.9714966 -2.7485352 -8.710205 -4.607788 -11.216187 -5.57782c-2.4655762 -1.010437 -5.557617 -1.515686 -9.276123 -1.515686c-6.2244873 0 -11.45874 2.6676025 -15.702698 8.00293c-4.2035522 5.335266 -6.305359 11.842712 -6.305359 19.522278c0 4.9714966 0.92962646 9.255859 2.7888794 12.853149c1.859314 3.59729 4.789673 7.0126953 8.791138 10.246216c10.670532 7.9624634 23.382263 14.186951 38.13513 18.673462c14.793274 4.446106 29.88971 6.6691284 45.289246 6.6691284c20.128601 0 37.89264 -3.718567 53.292236 -11.15564c15.399536 -7.4370117 27.302917 -17.986328 35.710022 -31.647888c8.44751 -13.66156 12.671265 -29.44513 12.671265 -47.350647c0 -16.612122 -3.536621 -31.304382 -10.609924 -44.07672c-7.073303 -12.812744 -16.874817 -22.755798 -29.404663 -29.829102c-12.529846 -7.073242 -26.878479 -10.609924 -43.04602 -10.609924c-14.146606 0 -26.433899 2.2230835 -36.862 6.6691284l0 -45.83496l80.453674 0c21.624023 0 32.436096 -8.690002 32.436096 -26.07013c0 -17.137573 -10.812073 -25.70636 -32.436096 -25.70636z" fill-rule="evenodd"/><path stroke="#000000" stroke-width="1.0" stroke-linejoin="round" stroke-linecap="butt" d="m181.02647 697.17114l0 4.48645c0 9.943054 -2.8495178 18.087463 -8.548569 24.433228c-5.699051 6.305298 -13.035065 9.457947 -22.008041 9.457947c-5.699051 0 -10.347214 -1.8592529 -13.944489 -5.577759c-3.59729 -3.718567 -5.39592 -8.447571 -5.39592 -14.187012c0 -6.7095337 3.354782 -11.478943 10.064285 -14.308289c6.7095184 -2.86969 18.006577 -4.3045654 33.891174 -4.3045654zm-20.128555 -108.03949c-12.651077 0 -25.564896 1.3742676 -38.741432 4.1227417c-13.136108 2.7484741 -24.049187 6.345703 -32.739235 10.791809c-4.9715195 2.7484741 -8.588989 5.860718 -10.852455 9.336731c-2.2230225 3.4760132 -3.334549 7.942322 -3.334549 13.398865c0 7.194519 1.8592529 13.035034 5.577797 17.521545c3.7589493 4.446045 8.730461 6.6690674 14.9145355 6.6690674c4.001465 0 8.851723 -0.9902344 14.550774 -2.9707642c19.603127 -6.9520264 34.49746 -10.42804 44.68299 -10.42804c9.458008 0 16.167511 1.9401245 20.12857 5.8203125c3.9610596 3.8397827 5.941559 10.104675 5.941559 18.794739l0 4.4258423l-10.064285 0c-25.30217 0 -45.410522 1.7380371 -60.325066 5.2140503c-14.914543 3.4760132 -25.787209 9.134644 -32.61798 16.975891c-6.830765 7.8008423 -10.24617 18.28949 -10.24617 31.466064c0 11.438477 2.9101562 21.684631 8.730469 30.738464c5.860718 9.053833 13.883858 16.127136 24.069397 21.21991c10.185539 5.0927734 21.603867 7.63916 34.254936 7.63916c11.438522 0 21.260284 -2.4857788 29.465317 -7.4572754c8.205032 -4.9715576 14.045563 -11.923584 17.52156 -20.85614c0.48501587 8.447571 3.5164337 15.157043 9.094223 20.128601c5.5778046 4.9714966 12.711716 7.4572754 21.401764 7.4572754c9.943024 0 17.703445 -2.6676636 23.281235 -8.00293c5.618225 -5.335327 8.427322 -12.731934 8.427322 -22.189941l0 -77.84662c0 -27.565674 -6.770157 -48.11859 -20.310455 -61.658875c-13.540314 -13.540344 -34.477264 -20.310486 -62.81082 -20.310486z" fill-rule="evenodd"/><path stroke="#000000" stroke-width="1.0" stroke-linejoin="round" stroke-linecap="butt" d="m302.13052 589.9198c-7.9625244 0 -14.8741455 2.9910278 -20.734863 8.973022c-5.8203125 5.9415283 -8.730469 12.873352 -8.730469 20.795471c0 7.9624634 3.1122437 15.035767 9.336761 21.219849l42.439728 41.772827l-46.1987 46.138123c-6.1840515 6.2244873 -9.276093 13.317932 -9.276093 21.280457c0 7.6795654 2.9707642 14.510376 8.912323 20.49237c5.9819946 5.9415283 12.9340515 8.9123535 20.85611 8.9123535c8.205017 0 15.541046 -3.3547974 22.008057 -10.064331l43.167267 -45.410522l43.591705 45.410522c6.4670105 6.7095337 13.803009 10.064331 22.008026 10.064331c7.9220886 0 14.853912 -2.9708252 20.795502 -8.9123535c5.981964 -5.9819946 8.972961 -12.812744 8.972961 -20.49237c0 -7.9625244 -3.092041 -15.055969 -9.276123 -21.280457l-46.1987 -46.138123l42.43976 -41.772827c6.2244873 -6.4265747 9.336761 -13.621155 9.336731 -21.583618c0 -7.6795654 -2.930359 -14.429504 -8.791077 -20.249817c-5.8203125 -5.860779 -12.691498 -8.791138 -20.613586 -8.791138c-8.205017 0 -15.541046 3.3547974 -22.008057 10.064331l-40.25714 40.56024l-39.832733 -40.56024c-6.2244873 -6.9520874 -13.540314 -10.428101 -21.947388 -10.428101z" fill-rule="evenodd"/><path stroke="#000000" stroke-width="1.0" stroke-linejoin="round" stroke-linecap="butt" d="m573.62695 510.92126c-14.146545 0 -28.49524 2.243225 -43.04602 6.7297363c-14.510376 4.446045 -27.585846 10.65033 -39.22644 18.612854c-4.486511 2.9909668 -7.5381165 6.2244873 -9.154877 9.7005005c-1.6167603 3.4760132 -2.4251099 7.942322 -2.4251099 13.398865c0 7.6795654 2.1017761 14.328491 6.3053284 19.946655c4.2439575 5.57782 9.47821 8.366699 15.702698 8.366699c2.4655457 0 4.809845 -0.36376953 7.0328674 -1.0913086c2.2634583 -0.76794434 4.809845 -1.9603271 7.6391907 -3.5770874c2.86969 -1.6166992 4.8098145 -2.6676025 5.8202515 -3.152649l7.3966675 -3.7589111c7.9625244 -3.9610596 14.975159 -6.9924927 21.038025 -9.094238c6.1032104 -2.1018066 12.752075 -3.15271 19.946655 -3.15271c8.972961 0 15.86438 2.2432861 20.674194 6.7297363c4.850281 4.446106 7.2753906 10.892883 7.2753906 19.340393c0 14.389099 -8.184814 30.152466 -24.554382 47.29004l-78.9986 82.33313c-8.44751 8.690002 -12.671295 18.3703 -12.671295 29.040894c0 8.205017 2.6070251 14.975159 7.821045 20.310425c5.21402 5.335327 12.287323 8.00293 21.21988 8.00293l135.98907 0c10.913086 0 19.037292 -2.2230225 24.372559 -6.6690674c5.3756714 -4.486511 8.063538 -11.45874 8.063538 -20.916748c0 -9.17511 -2.6878662 -15.925049 -8.063538 -20.249817c-5.335266 -4.3652344 -13.459473 -6.5478516 -24.372559 -6.5478516l-74.875854 0l52.867798 -54.019714c14.672058 -15.399597 25.03949 -29.364319 31.102295 -41.894104c6.1032715 -12.529846 9.154846 -26.373291 9.154846 -41.530334c0 -14.672058 -3.7993774 -27.646484 -11.398071 -38.92334c-7.5583496 -11.317261 -18.28955 -20.007324 -32.193604 -26.07013c-13.904053 -6.1032104 -30.051392 -9.154846 -48.441956 -9.154846z" fill-rule="evenodd"/><path stroke="#000000" stroke-width="1.0" stroke-linejoin="round" stroke-linecap="butt" d="m748.3297 514.2558c-10.145142 0 -17.966187 2.7484741 -23.463135 8.245422c-5.456543 5.456543 -8.184814 13.398865 -8.184814 23.826904l0 100.945984c0 6.7095337 2.364502 12.125671 7.093506 16.248352c4.729004 4.0823364 10.569519 6.123474 17.521545 6.123474c5.9415894 0 11.519409 -1.3742676 16.733398 -4.1227417c8.205017 -3.2334595 15.338928 -5.456543 21.401794 -6.6690674c6.1032104 -1.2529907 12.873352 -1.8795166 20.310425 -1.8795166c12.449036 0 22.149536 3.1122437 29.101562 9.336792c6.9520264 6.184021 10.42804 14.853882 10.42804 26.00946c0 11.923584 -3.3547974 20.694397 -10.06427 26.312683c-6.7095337 5.577759 -17.016296 8.366699 -30.92041 8.366699c-7.477478 0 -14.389099 -1.1115723 -20.734863 -3.3345947c-6.305298 -2.2634277 -13.297791 -5.2544556 -20.977356 -8.972961l-7.4572754 -3.6983032c-4.9714966 -2.7485352 -8.710205 -4.607788 -11.216187 -5.57782c-2.4655762 -1.010437 -5.557617 -1.515686 -9.276123 -1.515686c-6.2244873 0 -11.45874 2.6676025 -15.702698 8.00293c-4.2035522 5.335266 -6.305359 11.842712 -6.305359 19.522278c0 4.9714966 0.92962646 9.255859 2.7888794 12.853149c1.859314 3.59729 4.789673 7.0126953 8.791138 10.246216c10.670532 7.9624634 23.382263 14.186951 38.13513 18.673462c14.793274 4.446106 29.88971 6.6691284 45.289246 6.6691284c20.128601 0 37.89264 -3.718567 53.292236 -11.15564c15.399536 -7.4370117 27.302917 -17.986328 35.710022 -31.647888c8.44751 -13.66156 12.671265 -29.44513 12.671265 -47.350647c0 -16.612122 -3.536621 -31.304382 -10.609924 -44.07672c-7.073303 -12.812744 -16.874817 -22.755798 -29.404663 -29.829102c-12.529846 -7.073242 -26.878479 -10.609924 -43.04602 -10.609924c-14.146606 0 -26.433899 2.2230835 -36.862 6.6691284l0 -45.83496l80.453674 0c21.624023 0 32.436096 -8.690002 32.436096 -26.07013c0 -17.137573 -10.812073 -25.70636 -32.436096 -25.70636z" fill-rule="evenodd"/><path fill="#cc0000" d="m66.333336 307.0551l172.94489 -172.94489l0 86.47244l428.50397 0l0 -86.47244l172.94489 172.94489l-172.94489 172.94489l0 -86.47244l-428.50397 0l0 86.47244z" fill-rule="evenodd"/><path stroke="#000000" stroke-width="1.0" stroke-linejoin="round" stroke-linecap="butt" d="m66.333336 307.0551l172.94489 -172.94489l0 86.47244l428.50397 0l0 -86.47244l172.94489 172.94489l-172.94489 172.94489l0 -86.47244l-428.50397 0l0 86.47244z" fill-rule="evenodd"/></g></svg>